# xmcd CD database file
#
# Track frame offsets:
#	150
#	16284
#	29015
#	46111
#	67429
#	95692
#	120261
#	129095
#	141729
#	156073
#	176215
#	189399
#	210863
#	225132
#
# Disc length: 3191 seconds
#
# Revision: 0
# Processed by: cddbd v1.5.2PL0 Copyright (c) Steve Scherf et al.
# Submitted via: CDex 1.51
#
DISCID=ba0c750e
DTITLE=Pierre Coran - Denis Lavant - Guingamor Le chevalier aux sortilèges
DYEAR=2007
DGENRE=Enfants
TTITLE0=Le roi de Bretagne
TTITLE1=Le preux chevalier
TTITLE2=Le baiser de la reine
TTITLE3=Le chevalier blanc
TTITLE4=La chasse au porc
TTITLE5=La belle pucelle
TTITLE6=Le baiser du chevalier
TTITLE7=Le palais aux mystère
TTITLE8=De trois jours à trois cents ans
TTITLE9=La mort du porc
TTITLE10=Le pays retrouvé
TTITLE11=Les pommes rouges
TTITLE12=Le chevalier perdu
TTITLE13=La chanson du trouvère
EXTD=YEAR: 2007
EXTT0=
EXTT1=
EXTT2=
EXTT3=
EXTT4=
EXTT5=
EXTT6=
EXTT7=
EXTT8=
EXTT9=
EXTT10=
EXTT11=
EXTT12=
EXTT13=
PLAYORDER=
